<?xml version="1.0" encoding="UTF-8" standalone="no"?>
<!DOCTYPE svg PUBLIC "-//W3C//DTD SVG 1.1//EN"
 "http://www.w3.org/Graphics/SVG/1.1/DTD/svg11.dtd">
<!-- Generated by graphviz version 2.43.0 (0)
 -->
<!-- Title: application_state_diagram Pages: 1 -->
<svg width="586pt" height="165pt"
 viewBox="0.00 0.00 586.43 165.00" xmlns="http://www.w3.org/2000/svg" xmlns:xlink="http://www.w3.org/1999/xlink">
<g id="graph0" class="graph" transform="scale(1 1) rotate(0) translate(4 161)">
<title>application_state_diagram</title>
<g id="a_graph0"><a xlink:href="index.html" xlink:title="Related Actions Profile" target="_parent">
<polygon fill="white" stroke="transparent" points="-4,4 -4,-161 582.43,-161 582.43,4 -4,4"/>
<text text-anchor="middle" x="289.21" y="-141.8" font-family="Helvetica,sans-Serif" font-size="14.00">Related Actions Profile</text>
</a>
</g>
<!-- home -->
<g id="node1" class="node">
<title>home</title>
<g id="a_node1"><a xlink:href="docs/semantic.home.html" xlink:title="&lt;TABLE&gt;" target="_parent">
<polygon fill="lightgray" stroke="black" stroke-width="2" points="277.43,-134 177.43,-134 177.43,-92 277.43,-92 277.43,-134"/>
<text text-anchor="start" x="207.43" y="-116.8" font-family="Times,serif" font-size="14.00">home</text>
<text text-anchor="start" x="183.43" y="-101.8" font-family="Times,serif" font-size="14.00">(relatedlink)</text>
</a>
</g>
</g>
<!-- mru -->
<g id="node2" class="node">
<title>mru</title>
<g id="a_node2"><a xlink:href="docs/semantic.mru.html" xlink:title="&lt;TABLE&gt;" target="_parent">
<polygon fill="lightgray" stroke="black" stroke-width="2" points="117.93,-42 38.93,-42 38.93,0 117.93,0 117.93,-42"/>
<text text-anchor="start" x="63.93" y="-24.8" font-family="Times,serif" font-size="14.00">mru</text>
<text text-anchor="start" x="45.43" y="-9.8" font-family="Times,serif" font-size="14.00">(mrulink)</text>
</a>
</g>
</g>
<!-- home&#45;&gt;mru -->
<g id="edge1" class="edge">
<title>home&#45;&gt;mru</title>
<g id="a_edge1"><a xlink:href="docs/safe.goMRU.html" xlink:title="goMRU, mru (safe)" target="_parent">
<path fill="none" stroke="black" d="M177.42,-110.71C118.58,-108.02 26.12,-99.7 4.43,-74 -8.1,-59.16 8.76,-46.52 29.52,-37.42"/>
<polygon fill="black" stroke="black" points="30.96,-40.61 38.92,-33.61 28.34,-34.12 30.96,-40.61"/>
</a>
</g>
<g id="a_edge1&#45;label"><a xlink:href="docs/safe.goMRU.html" xlink:title="goMRU, mru (safe)" target="_parent">
<text text-anchor="middle" x="67.43" y="-63.6" font-family="Times,serif" font-size="13.00">goMRU, mru (safe)</text>
</a>
</g>
</g>
<!-- related -->
<g id="node3" class="node">
<title>related</title>
<g id="a_node3"><a xlink:href="docs/semantic.related.html" xlink:title="&lt;TABLE&gt;" target="_parent">
<polygon fill="lightgray" stroke="black" stroke-width="2" points="436.43,-42 336.43,-42 336.43,0 436.43,0 436.43,-42"/>
<text text-anchor="start" x="360.43" y="-24.8" font-family="Times,serif" font-size="14.00">related</text>
<text text-anchor="start" x="342.43" y="-9.8" font-family="Times,serif" font-size="14.00">(relatedlink)</text>
</a>
</g>
</g>
<!-- home&#45;&gt;related -->
<g id="edge3" class="edge">
<title>home&#45;&gt;related</title>
<g id="a_edge3"><a xlink:href="docs/safe.goRelated.html" xlink:title="goRelated, mru (safe)" target="_parent">
<path fill="none" stroke="black" d="M256.03,-91.99C273.74,-79.73 294.88,-65.39 304.43,-60 312.74,-55.31 321.74,-50.7 330.62,-46.39"/>
<polygon fill="black" stroke="black" points="332.27,-49.49 339.8,-42.03 329.27,-43.16 332.27,-49.49"/>
</a>
</g>
<g id="a_edge3&#45;label"><a xlink:href="docs/safe.goRelated.html" xlink:title="goRelated, mru (safe)" target="_parent">
<text text-anchor="middle" x="375.93" y="-63.6" font-family="Times,serif" font-size="13.00">goRelated, mru (safe)</text>
</a>
</g>
</g>
<!-- mru&#45;&gt;home -->
<g id="edge2" class="edge">
<title>mru&#45;&gt;home</title>
<g id="a_edge2"><a xlink:href="docs/safe.goHome.html" xlink:title="goHome, self (safe)" target="_parent">
<path fill="none" stroke="black" d="M105.63,-42.15C119.62,-52.18 137.12,-64.22 153.43,-74 160.9,-78.48 168.95,-82.96 176.9,-87.19"/>
<polygon fill="black" stroke="black" points="175.32,-90.31 185.8,-91.84 178.56,-84.1 175.32,-90.31"/>
</a>
</g>
<g id="a_edge2&#45;label"><a xlink:href="docs/safe.goHome.html" xlink:title="goHome, self (safe)" target="_parent">
<text text-anchor="middle" x="217.43" y="-63.6" font-family="Times,serif" font-size="13.00">goHome, self (safe)</text>
</a>
</g>
</g>
<!-- related&#45;&gt;home -->
<g id="edge4" class="edge">
<title>related&#45;&gt;home</title>
<g id="a_edge4"><a xlink:href="docs/safe.goHome.html" xlink:title="goHome, self (safe)" target="_parent">
<path fill="none" stroke="black" d="M432.94,-42.02C447.41,-51.04 457.29,-62.29 447.43,-74 427.35,-97.84 345.66,-106.73 287.7,-110.04"/>
<polygon fill="black" stroke="black" points="287.33,-106.55 277.53,-110.57 287.7,-113.54 287.33,-106.55"/>
</a>
</g>
<g id="a_edge4&#45;label"><a xlink:href="docs/safe.goHome.html" xlink:title="goHome, self (safe)" target="_parent">
<text text-anchor="middle" x="514.43" y="-63.6" font-family="Times,serif" font-size="13.00">goHome, self (safe)</text>
</a>
</g>
</g>
</g>
</svg>
