<?xml version="1.0" encoding="UTF-8" standalone="no"?>
<!DOCTYPE svg PUBLIC "-//W3C//DTD SVG 1.1//EN"
 "http://www.w3.org/Graphics/SVG/1.1/DTD/svg11.dtd">
<!-- Generated by graphviz version 2.43.0 (0)
 -->
<!-- Title: application_state_diagram Pages: 1 -->
<svg width="299pt" height="251pt"
 viewBox="0.00 0.00 298.76 251.00" xmlns="http://www.w3.org/2000/svg" xmlns:xlink="http://www.w3.org/1999/xlink">
<g id="graph0" class="graph" transform="scale(1 1) rotate(0) translate(4 247)">
<title>application_state_diagram</title>
<g id="a_graph0"><a xlink:href="index.html" xlink:title="Testing External References" target="_parent">
<polygon fill="white" stroke="transparent" points="-4,4 -4,-247 294.76,-247 294.76,4 -4,4"/>
<text text-anchor="middle" x="145.38" y="-227.8" font-family="Helvetica,sans-Serif" font-size="14.00">Testing External References</text>
</a>
</g>
<!-- mru -->
<g id="node1" class="node">
<title>mru</title>
<g id="a_node1"><a xlink:href="docs/semantic.mru.html" xlink:title="&lt;TABLE&gt;" target="_parent">
<polygon fill="lightgray" stroke="black" stroke-width="2" points="127.26,-220 48.26,-220 48.26,-178 127.26,-178 127.26,-220"/>
<text text-anchor="start" x="73.26" y="-202.8" font-family="Times,serif" font-size="14.00">mru</text>
<text text-anchor="start" x="54.76" y="-187.8" font-family="Times,serif" font-size="14.00">(mrulink)</text>
</a>
</g>
</g>
<!-- home -->
<g id="node3" class="node">
<title>home</title>
<g id="a_node3"><a xlink:href="docs/semantic.home.html" xlink:title="home" target="_parent">
<polygon fill="lightgray" stroke="black" stroke-width="2" points="115.76,-128 59.76,-128 59.76,-92 115.76,-92 115.76,-128"/>
<text text-anchor="middle" x="87.76" y="-106.3" font-family="Times,serif" font-size="14.00">home</text>
</a>
</g>
</g>
<!-- mru&#45;&gt;home -->
<g id="edge4" class="edge">
<title>mru&#45;&gt;home</title>
<g id="a_edge4"><a xlink:href="docs/safe.goHome.html" xlink:title="goHome, home (safe)" target="_parent">
<path fill="none" stroke="black" d="M48,-189.32C19.95,-181.2 -10.32,-167.12 3.76,-146 14.09,-130.51 32.71,-121.86 49.8,-117.04"/>
<polygon fill="black" stroke="black" points="50.74,-120.41 59.61,-114.62 49.07,-113.62 50.74,-120.41"/>
</a>
</g>
<g id="a_edge4&#45;label"><a xlink:href="docs/safe.goHome.html" xlink:title="goHome, home (safe)" target="_parent">
<text text-anchor="middle" x="73.76" y="-149.6" font-family="Times,serif" font-size="13.00">goHome, home (safe)</text>
</a>
</g>
</g>
<!-- related -->
<g id="node2" class="node">
<title>related</title>
<g id="a_node2"><a xlink:href="docs/semantic.related.html" xlink:title="&lt;TABLE&gt;" target="_parent">
<polygon fill="lightgray" stroke="black" stroke-width="2" points="137.76,-42 37.76,-42 37.76,0 137.76,0 137.76,-42"/>
<text text-anchor="start" x="61.76" y="-24.8" font-family="Times,serif" font-size="14.00">related</text>
<text text-anchor="start" x="43.76" y="-9.8" font-family="Times,serif" font-size="14.00">(relatedlink)</text>
</a>
</g>
</g>
<!-- related&#45;&gt;home -->
<g id="edge5" class="edge">
<title>related&#45;&gt;home</title>
<g id="a_edge5"><a xlink:href="docs/safe.goHome.html" xlink:title="goHome, home (safe)" target="_parent">
<path fill="none" stroke="black" d="M134.78,-42.23C147.47,-50.76 155.94,-61.6 148.76,-74 143.33,-83.37 134.35,-90.45 124.92,-95.69"/>
<polygon fill="black" stroke="black" points="123.26,-92.61 115.85,-100.18 126.36,-98.89 123.26,-92.61"/>
</a>
</g>
<g id="a_edge5&#45;label"><a xlink:href="docs/safe.goHome.html" xlink:title="goHome, home (safe)" target="_parent">
<text text-anchor="middle" x="220.76" y="-63.6" font-family="Times,serif" font-size="13.00">goHome, home (safe)</text>
</a>
</g>
</g>
<!-- home&#45;&gt;mru -->
<g id="edge2" class="edge">
<title>home&#45;&gt;mru</title>
<g id="a_edge2"><a xlink:href="docs/safe.goMRU.html" xlink:title="goMRU, mru (safe)" target="_parent">
<path fill="none" stroke="black" d="M116.03,-120.21C128.04,-125.69 140.85,-133.97 147.76,-146 154.45,-157.65 147.34,-167.97 135.97,-176.29"/>
<polygon fill="black" stroke="black" points="134.06,-173.36 127.54,-181.71 137.84,-179.24 134.06,-173.36"/>
</a>
</g>
<g id="a_edge2&#45;label"><a xlink:href="docs/safe.goMRU.html" xlink:title="goMRU, mru (safe)" target="_parent">
<text text-anchor="middle" x="212.76" y="-149.6" font-family="Times,serif" font-size="13.00">goMRU, mru (safe)</text>
</a>
</g>
</g>
<!-- home&#45;&gt;related -->
<g id="edge3" class="edge">
<title>home&#45;&gt;related</title>
<g id="a_edge3"><a xlink:href="docs/safe.goRelated.html" xlink:title="goRelated, mru (safe)" target="_parent">
<path fill="none" stroke="black" d="M59.46,-105C40.77,-100.73 17.61,-91.95 5.76,-74 -4.47,-58.52 9.26,-46.74 28.23,-38.33"/>
<polygon fill="black" stroke="black" points="29.58,-41.56 37.56,-34.6 26.98,-35.07 29.58,-41.56"/>
</a>
</g>
<g id="a_edge3&#45;label"><a xlink:href="docs/safe.goRelated.html" xlink:title="goRelated, mru (safe)" target="_parent">
<text text-anchor="middle" x="77.26" y="-63.6" font-family="Times,serif" font-size="13.00">goRelated, mru (safe)</text>
</a>
</g>
</g>
<!-- home&#45;&gt;home -->
<g id="edge1" class="edge">
<title>home&#45;&gt;home</title>
<g id="a_edge1"><a xlink:href="docs/safe.goHome.html" xlink:title="goHome, home (safe)" target="_parent">
<path fill="none" stroke="black" d="M116.06,-117.87C125.85,-117.96 133.76,-115.33 133.76,-110 133.76,-106.75 130.82,-104.51 126.31,-103.27"/>
<polygon fill="black" stroke="black" points="126.38,-99.76 116.06,-102.13 125.61,-106.71 126.38,-99.76"/>
</a>
</g>
<g id="a_edge1&#45;label"><a xlink:href="docs/safe.goHome.html" xlink:title="goHome, home (safe)" target="_parent">
<text text-anchor="middle" x="203.76" y="-106.6" font-family="Times,serif" font-size="13.00">goHome, home (safe)</text>
</a>
</g>
</g>
</g>
</svg>
