<?xml version="1.0" encoding="UTF-8" standalone="no"?>
<!DOCTYPE svg PUBLIC "-//W3C//DTD SVG 1.1//EN"
 "http://www.w3.org/Graphics/SVG/1.1/DTD/svg11.dtd">
<!-- Generated by graphviz version 2.43.0 (0)
 -->
<!-- Title: application_state_diagram Pages: 1 -->
<svg width="915pt" height="454pt"
 viewBox="0.00 0.00 914.65 454.00" xmlns="http://www.w3.org/2000/svg" xmlns:xlink="http://www.w3.org/1999/xlink">
<g id="graph0" class="graph" transform="scale(1 1) rotate(0) translate(4 450)">
<title>application_state_diagram</title>
<g id="a_graph0"><a xlink:href="index.html" xlink:title="ALPS Person Profile" target="_parent">
<polygon fill="white" stroke="transparent" points="-4,4 -4,-450 910.65,-450 910.65,4 -4,4"/>
<text text-anchor="middle" x="453.33" y="-430.8" font-family="Helvetica,sans-Serif" font-size="14.00">ALPS Person Profile</text>
</a>
</g>
<!-- home -->
<g id="node1" class="node">
<title>home</title>
<g id="a_node1"><a xlink:href="docs/semantic.home.html" xlink:title="&lt;TABLE&gt;" target="_parent">
<polygon fill="lightgray" stroke="black" stroke-width="2" points="574.65,-423 512.65,-423 512.65,-381 574.65,-381 574.65,-423"/>
<text text-anchor="start" x="523.65" y="-405.8" font-family="Times,serif" font-size="14.00">home</text>
<text text-anchor="start" x="518.65" y="-390.8" font-family="Times,serif" font-size="14.00">(home)</text>
</a>
</g>
</g>
<!-- home&#45;&gt;home -->
<g id="edge1" class="edge">
<title>home&#45;&gt;home</title>
<g id="a_edge1"><a xlink:href="docs/safe.goHome.html" xlink:title="goHome, home (safe)" target="_parent">
<path fill="none" stroke="black" d="M574.75,-410.62C584.74,-410.53 592.65,-407.66 592.65,-402 592.65,-398.46 589.56,-396.01 584.8,-394.65"/>
<polygon fill="black" stroke="black" points="585.11,-391.16 574.75,-393.38 584.23,-398.11 585.11,-391.16"/>
</a>
</g>
<g id="a_edge1&#45;label"><a xlink:href="docs/safe.goHome.html" xlink:title="goHome, home (safe)" target="_parent">
<text text-anchor="middle" x="662.65" y="-398.6" font-family="Times,serif" font-size="13.00">goHome, home (safe)</text>
</a>
</g>
</g>
<!-- personCollection -->
<g id="node2" class="node">
<title>personCollection</title>
<g id="a_node2"><a xlink:href="docs/semantic.personCollection.html" xlink:title="&lt;TABLE&gt;" target="_parent">
<polygon fill="lightgray" stroke="black" stroke-width="2" points="219.15,-331 86.15,-331 86.15,-244 219.15,-244 219.15,-331"/>
<text text-anchor="start" x="92.65" y="-313.3" font-family="Times,serif" font-size="14.00">personCollection</text>
<text text-anchor="start" x="115.15" y="-298.3" font-family="Times,serif" font-size="14.00">(identifier)</text>
<text text-anchor="start" x="107.15" y="-283.3" font-family="Times,serif" font-size="14.00">(givenName)</text>
<text text-anchor="start" x="104.65" y="-268.3" font-family="Times,serif" font-size="14.00">(familyName)</text>
<text text-anchor="start" x="125.65" y="-253.3" font-family="Times,serif" font-size="14.00">(status)</text>
</a>
</g>
</g>
<!-- home&#45;&gt;personCollection -->
<g id="edge2" class="edge">
<title>home&#45;&gt;personCollection</title>
<g id="a_edge2"><a xlink:href="docs/safe.goPersonCollection.html" xlink:title="goPersonCollection, person collection (safe)" target="_parent">
<path fill="none" stroke="black" d="M512.43,-400.3C424.19,-398 177.8,-389.26 153.65,-363 148.05,-356.91 145.18,-349.21 144.04,-341.08"/>
<polygon fill="black" stroke="black" points="147.53,-340.81 143.43,-331.04 140.54,-341.24 147.53,-340.81"/>
</a>
</g>
<g id="a_edge2&#45;label"><a xlink:href="docs/safe.goPersonCollection.html" xlink:title="goPersonCollection, person collection (safe)" target="_parent">
<text text-anchor="middle" x="299.15" y="-352.6" font-family="Times,serif" font-size="13.00">goPersonCollection, person collection (safe)</text>
</a>
</g>
</g>
<!-- personCollection&#45;&gt;home -->
<g id="edge3" class="edge">
<title>personCollection&#45;&gt;home</title>
<g id="a_edge3"><a xlink:href="docs/safe.goHome.html" xlink:title="goHome, home (safe)" target="_parent">
<path fill="none" stroke="black" d="M219.16,-295.69C279.58,-303.75 370.36,-319.71 444.65,-349 455.78,-353.39 457.18,-357.21 467.65,-363 479.06,-369.31 491.65,-375.79 503.24,-381.58"/>
<polygon fill="black" stroke="black" points="501.77,-384.75 512.29,-386.05 504.87,-378.48 501.77,-384.75"/>
</a>
</g>
<g id="a_edge3&#45;label"><a xlink:href="docs/safe.goHome.html" xlink:title="goHome, home (safe)" target="_parent">
<text text-anchor="middle" x="537.65" y="-352.6" font-family="Times,serif" font-size="13.00">goHome, home (safe)</text>
</a>
</g>
</g>
<!-- personCollection&#45;&gt;personCollection -->
<g id="edge4" class="edge">
<title>personCollection&#45;&gt;personCollection</title>
<path fill="none" stroke="black" d="M219.25,-299.24C229.88,-297.52 237.15,-293.61 237.15,-287.5 237.15,-283.59 234.16,-280.57 229.22,-278.46"/>
<polygon fill="black" stroke="black" points="229.81,-275 219.25,-275.76 227.98,-281.75 229.81,-275"/>
<g id="a_edge4_0"><a xlink:href="docs/safe.goPersonCollection.html" xlink:title="&lt;TABLE&gt;">
<text text-anchor="start" x="241.65" y="-294.1" font-family="Times,serif" font-size="13.00">goPersonCollection (safe)</text>
</a>
</g>
<g id="a_edge4_1"><a xlink:href="docs/safe.goPersonFilter.html" xlink:title="&lt;TABLE&gt;">
<text text-anchor="start" x="241.65" y="-274.1" font-family="Times,serif" font-size="13.00">goPersonFilter (safe)</text>
</a>
</g>
</g>
<!-- personItem -->
<g id="node3" class="node">
<title>personItem</title>
<g id="a_node3"><a xlink:href="docs/semantic.personItem.html" xlink:title="&lt;TABLE&gt;" target="_parent">
<polygon fill="lightgray" stroke="black" stroke-width="2" points="429.15,-194 320.15,-194 320.15,-107 429.15,-107 429.15,-194"/>
<text text-anchor="start" x="334.15" y="-176.3" font-family="Times,serif" font-size="14.00">personItem</text>
<text text-anchor="start" x="337.15" y="-161.3" font-family="Times,serif" font-size="14.00">(identifier)</text>
<text text-anchor="start" x="329.15" y="-146.3" font-family="Times,serif" font-size="14.00">(givenName)</text>
<text text-anchor="start" x="326.65" y="-131.3" font-family="Times,serif" font-size="14.00">(familyName)</text>
<text text-anchor="start" x="347.65" y="-116.3" font-family="Times,serif" font-size="14.00">(status)</text>
</a>
</g>
</g>
<!-- personCollection&#45;&gt;personItem -->
<g id="edge5" class="edge">
<title>personCollection&#45;&gt;personItem</title>
<g id="a_edge5"><a xlink:href="docs/unsafe.doPersonCreate.html" xlink:title="doPersonCreate, person item (unsafe)" target="_parent">
<path fill="none" stroke="black" d="M85.99,-266.16C53.05,-252.81 24.29,-233.81 44.65,-212 64.49,-190.75 277.97,-202.88 305.65,-194 307.31,-193.47 308.97,-192.89 310.62,-192.27"/>
<polygon fill="black" stroke="black" points="312.2,-195.4 320.05,-188.29 309.47,-188.95 312.2,-195.4"/>
</a>
</g>
<g id="a_edge5&#45;label"><a xlink:href="docs/unsafe.doPersonCreate.html" xlink:title="doPersonCreate, person item (unsafe)" target="_parent">
<text text-anchor="middle" x="169.15" y="-215.6" font-family="Times,serif" font-size="13.00">doPersonCreate, person item (unsafe)</text>
</a>
</g>
</g>
<!-- personItem&#45;&gt;home -->
<g id="edge6" class="edge">
<title>personItem&#45;&gt;home</title>
<g id="a_edge6"><a xlink:href="docs/safe.goHome.html" xlink:title="goHome, home (safe)" target="_parent">
<path fill="none" stroke="black" d="M429.34,-158.1C490.86,-166.77 585.04,-184.25 606.65,-212 654.92,-274.01 612.62,-354.27 607.65,-363 602.22,-372.53 593.36,-379.92 583.94,-385.54"/>
<polygon fill="black" stroke="black" points="582,-382.6 574.82,-390.4 585.29,-388.78 582,-382.6"/>
</a>
</g>
<g id="a_edge6&#45;label"><a xlink:href="docs/safe.goHome.html" xlink:title="goHome, home (safe)" target="_parent">
<text text-anchor="middle" x="698.65" y="-284.1" font-family="Times,serif" font-size="13.00">goHome, home (safe)</text>
</a>
</g>
</g>
<!-- personItem&#45;&gt;personCollection -->
<g id="edge7" class="edge">
<title>personItem&#45;&gt;personCollection</title>
<g id="a_edge7"><a xlink:href="docs/safe.goPersonCollection.html" xlink:title="goPersonCollection, person collection (safe)" target="_parent">
<path fill="none" stroke="black" d="M333.6,-194.23C321.43,-205.47 307.6,-216.97 293.65,-226 273.6,-238.98 250.29,-250.29 228.46,-259.51"/>
<polygon fill="black" stroke="black" points="227.12,-256.28 219.22,-263.33 229.8,-262.75 227.12,-256.28"/>
</a>
</g>
<g id="a_edge7&#45;label"><a xlink:href="docs/safe.goPersonCollection.html" xlink:title="goPersonCollection, person collection (safe)" target="_parent">
<text text-anchor="middle" x="457.15" y="-215.6" font-family="Times,serif" font-size="13.00">goPersonCollection, person collection (safe)</text>
</a>
</g>
</g>
<!-- personItem&#45;&gt;personItem -->
<g id="edge8" class="edge">
<title>personItem&#45;&gt;personItem</title>
<path fill="none" stroke="black" d="M429.35,-162.64C439.78,-161.19 447.15,-157.14 447.15,-150.5 447.15,-146.25 444.12,-143.06 439.21,-140.93"/>
<polygon fill="black" stroke="black" points="439.91,-137.5 429.35,-138.36 438.14,-144.27 439.91,-137.5"/>
<g id="a_edge8_2"><a xlink:href="docs/safe.goPersonItem.html" xlink:title="&lt;TABLE&gt;">
<text text-anchor="start" x="451.15" y="-157.1" font-family="Times,serif" font-size="13.00">goPersonItem (safe)</text>
</a>
</g>
<g id="a_edge8_3"><a xlink:href="docs/idempotent.doPersonUpdate.html" xlink:title="&lt;TABLE&gt;">
<text text-anchor="start" x="451.15" y="-137.1" font-family="Times,serif" font-size="13.00">doPersonUpdate (idempotent)</text>
</a>
</g>
</g>
<!-- personStatus -->
<g id="node4" class="node">
<title>personStatus</title>
<g id="a_node4"><a xlink:href="docs/semantic.personStatus.html" xlink:title="&lt;TABLE&gt;" target="_parent">
<polygon fill="lightgray" stroke="black" stroke-width="2" points="369.65,-57 261.65,-57 261.65,0 369.65,0 369.65,-57"/>
<text text-anchor="start" x="267.65" y="-39.3" font-family="Times,serif" font-size="14.00">personStatus</text>
<text text-anchor="start" x="277.65" y="-24.3" font-family="Times,serif" font-size="14.00">(identifier)</text>
<text text-anchor="start" x="288.15" y="-9.3" font-family="Times,serif" font-size="14.00">(status)</text>
</a>
</g>
</g>
<!-- personItem&#45;&gt;personStatus -->
<g id="edge9" class="edge">
<title>personItem&#45;&gt;personStatus</title>
<g id="a_edge9"><a xlink:href="docs/safe.goPersonStatus.html" xlink:title="goPersonStatus, person status item (safe)" target="_parent">
<path fill="none" stroke="black" d="M319.94,-113.04C315.22,-110.75 310.42,-108.69 305.65,-107 276.5,-96.66 188.06,-112.24 167.65,-89 139.39,-56.81 199.32,-41.8 251.18,-34.96"/>
<polygon fill="black" stroke="black" points="251.92,-38.39 261.41,-33.69 251.06,-31.44 251.92,-38.39"/>
</a>
</g>
<g id="a_edge9&#45;label"><a xlink:href="docs/safe.goPersonStatus.html" xlink:title="goPersonStatus, person status item (safe)" target="_parent">
<text text-anchor="middle" x="305.15" y="-78.6" font-family="Times,serif" font-size="13.00">goPersonStatus, person status item (safe)</text>
</a>
</g>
</g>
<!-- personStatus&#45;&gt;home -->
<g id="edge10" class="edge">
<title>personStatus&#45;&gt;home</title>
<g id="a_edge10"><a xlink:href="docs/safe.goHome.html" xlink:title="goHome, home (safe)" target="_parent">
<path fill="none" stroke="black" d="M369.9,-30.77C456.77,-33.73 622.24,-43.45 670.65,-75 744.15,-122.9 749.12,-159.48 772.65,-244 783.02,-281.25 795.65,-299.92 772.65,-331 750.21,-361.33 644.48,-383.84 584.84,-394.37"/>
<polygon fill="black" stroke="black" points="584.24,-390.92 574.98,-396.08 585.43,-397.82 584.24,-390.92"/>
</a>
</g>
<g id="a_edge10&#45;label"><a xlink:href="docs/safe.goHome.html" xlink:title="goHome, home (safe)" target="_parent">
<text text-anchor="middle" x="836.65" y="-215.6" font-family="Times,serif" font-size="13.00">goHome, home (safe)</text>
</a>
</g>
</g>
<!-- personStatus&#45;&gt;personCollection -->
<g id="edge11" class="edge">
<title>personStatus&#45;&gt;personCollection</title>
<g id="a_edge11"><a xlink:href="docs/safe.goPersonCollection.html" xlink:title="goPersonCollection, person collection (safe)" target="_parent">
<path fill="none" stroke="black" d="M261.56,-35.8C184.46,-46.02 48.99,-69 19.65,-107 -12.92,-149.2 -2.37,-187.64 34.65,-226 46.61,-238.39 61.66,-248.71 76.97,-257.11"/>
<polygon fill="black" stroke="black" points="75.51,-260.29 85.99,-261.83 78.76,-254.09 75.51,-260.29"/>
</a>
</g>
<g id="a_edge11&#45;label"><a xlink:href="docs/safe.goPersonCollection.html" xlink:title="goPersonCollection, person collection (safe)" target="_parent">
<text text-anchor="middle" x="165.15" y="-147.1" font-family="Times,serif" font-size="13.00">goPersonCollection, person collection (safe)</text>
</a>
</g>
</g>
<!-- personStatus&#45;&gt;personItem -->
<g id="edge12" class="edge">
<title>personStatus&#45;&gt;personItem</title>
<g id="a_edge12"><a xlink:href="docs/safe.goPersonItem.html" xlink:title="goPersonItem, person item (safe)" target="_parent">
<path fill="none" stroke="black" d="M369.77,-34.58C396.35,-40.11 426.14,-51.54 442.65,-75 451.25,-87.22 446.57,-99.56 436.5,-110.6"/>
<polygon fill="black" stroke="black" points="433.96,-108.19 429.19,-117.65 438.82,-113.22 433.96,-108.19"/>
</a>
</g>
<g id="a_edge12&#45;label"><a xlink:href="docs/safe.goPersonItem.html" xlink:title="goPersonItem, person item (safe)" target="_parent">
<text text-anchor="middle" x="557.15" y="-78.6" font-family="Times,serif" font-size="13.00">goPersonItem, person item (safe)</text>
</a>
</g>
</g>
<!-- personStatus&#45;&gt;personStatus -->
<g id="edge13" class="edge">
<title>personStatus&#45;&gt;personStatus</title>
<path fill="none" stroke="black" d="M369.66,-37.82C380.18,-36.73 387.65,-33.63 387.65,-28.5 387.65,-25.21 384.58,-22.76 379.61,-21.13"/>
<polygon fill="black" stroke="black" points="380.14,-17.67 369.66,-19.18 378.8,-24.54 380.14,-17.67"/>
<g id="a_edge13_4"><a xlink:href="docs/safe.goPersonStatus.html" xlink:title="&lt;TABLE&gt;">
<text text-anchor="start" x="391.65" y="-35.1" font-family="Times,serif" font-size="13.00">goPersonStatus (safe)</text>
</a>
</g>
<g id="a_edge13_5"><a xlink:href="docs/idempotent.doPersonStatusUpdate.html" xlink:title="&lt;TABLE&gt;">
<text text-anchor="start" x="391.65" y="-15.1" font-family="Times,serif" font-size="13.00">doPersonStatusUpdate (idempotent)</text>
</a>
</g>
</g>
</g>
</svg>
