<?xml version="1.0" encoding="UTF-8" standalone="no"?>
<!DOCTYPE svg PUBLIC "-//W3C//DTD SVG 1.1//EN"
 "http://www.w3.org/Graphics/SVG/1.1/DTD/svg11.dtd">
<!-- Generated by graphviz version 2.43.0 (0)
 -->
<!-- Title: application_state_diagram Pages: 1 -->
<svg width="842pt" height="482pt"
 viewBox="0.00 0.00 842.07 482.00" xmlns="http://www.w3.org/2000/svg" xmlns:xlink="http://www.w3.org/1999/xlink">
<g id="graph0" class="graph" transform="scale(1 1) rotate(0) translate(4 478)">
<title>application_state_diagram</title>
<g id="a_graph0"><a xlink:href="index.html" xlink:title="ALPS Person Profile" target="_parent">
<polygon fill="white" stroke="transparent" points="-4,4 -4,-478 838.07,-478 838.07,4 -4,4"/>
<text text-anchor="middle" x="417.03" y="-458.8" font-family="Helvetica,sans-Serif" font-size="14.00">ALPS Person Profile</text>
</a>
</g>
<!-- home -->
<g id="node1" class="node">
<title>home</title>
<g id="a_node1"><a xlink:href="docs/semantic.home.html" xlink:title="&lt;TABLE&gt;" target="_parent">
<polygon fill="lightgray" stroke="black" stroke-width="2" points="495.07,-451 433.07,-451 433.07,-409 495.07,-409 495.07,-451"/>
<text text-anchor="start" x="444.07" y="-433.8" font-family="Times,serif" font-size="14.00">home</text>
<text text-anchor="start" x="439.07" y="-418.8" font-family="Times,serif" font-size="14.00">(home)</text>
</a>
</g>
</g>
<!-- home&#45;&gt;home -->
<g id="edge1" class="edge">
<title>home&#45;&gt;home</title>
<g id="a_edge1"><a xlink:href="docs/safe.goHome.html" xlink:title="goHome, home (safe)" target="_parent">
<path fill="none" stroke="black" d="M495.17,-438.62C505.16,-438.53 513.07,-435.66 513.07,-430 513.07,-426.46 509.98,-424.01 505.22,-422.65"/>
<polygon fill="black" stroke="black" points="505.53,-419.16 495.17,-421.38 504.65,-426.11 505.53,-419.16"/>
</a>
</g>
<g id="a_edge1&#45;label"><a xlink:href="docs/safe.goHome.html" xlink:title="goHome, home (safe)" target="_parent">
<text text-anchor="middle" x="583.07" y="-426.6" font-family="Times,serif" font-size="13.00">goHome, home (safe)</text>
</a>
</g>
</g>
<!-- personCollection -->
<g id="node2" class="node">
<title>personCollection</title>
<g id="a_node2"><a xlink:href="docs/semantic.personCollection.html" xlink:title="&lt;TABLE&gt;" target="_parent">
<polygon fill="lightgray" stroke="black" stroke-width="2" points="139.57,-359 6.57,-359 6.57,-272 139.57,-272 139.57,-359"/>
<text text-anchor="start" x="13.07" y="-341.3" font-family="Times,serif" font-size="14.00">personCollection</text>
<text text-anchor="start" x="35.57" y="-326.3" font-family="Times,serif" font-size="14.00">(identifier)</text>
<text text-anchor="start" x="27.57" y="-311.3" font-family="Times,serif" font-size="14.00">(givenName)</text>
<text text-anchor="start" x="25.07" y="-296.3" font-family="Times,serif" font-size="14.00">(familyName)</text>
<text text-anchor="start" x="46.07" y="-281.3" font-family="Times,serif" font-size="14.00">(status)</text>
</a>
</g>
</g>
<!-- home&#45;&gt;personCollection -->
<g id="edge2" class="edge">
<title>home&#45;&gt;personCollection</title>
<g id="a_edge2"><a xlink:href="docs/safe.goPersonCollection.html" xlink:title="goPersonCollection, person collection (safe)" target="_parent">
<path fill="none" stroke="black" d="M432.85,-428.3C344.61,-426 98.22,-417.26 74.07,-391 68.47,-384.91 65.6,-377.21 64.46,-369.08"/>
<polygon fill="black" stroke="black" points="67.95,-368.81 63.85,-359.04 60.96,-369.24 67.95,-368.81"/>
</a>
</g>
<g id="a_edge2&#45;label"><a xlink:href="docs/safe.goPersonCollection.html" xlink:title="goPersonCollection, person collection (safe)" target="_parent">
<text text-anchor="middle" x="219.57" y="-380.6" font-family="Times,serif" font-size="13.00">goPersonCollection, person collection (safe)</text>
</a>
</g>
</g>
<!-- personCollection&#45;&gt;home -->
<g id="edge3" class="edge">
<title>personCollection&#45;&gt;home</title>
<g id="a_edge3"><a xlink:href="docs/safe.goHome.html" xlink:title="goHome, home (safe)" target="_parent">
<path fill="none" stroke="black" d="M139.58,-323.69C200,-331.75 290.78,-347.71 365.07,-377 376.2,-381.39 377.6,-385.21 388.07,-391 399.48,-397.31 412.07,-403.79 423.66,-409.58"/>
<polygon fill="black" stroke="black" points="422.19,-412.75 432.71,-414.05 425.29,-406.48 422.19,-412.75"/>
</a>
</g>
<g id="a_edge3&#45;label"><a xlink:href="docs/safe.goHome.html" xlink:title="goHome, home (safe)" target="_parent">
<text text-anchor="middle" x="458.07" y="-380.6" font-family="Times,serif" font-size="13.00">goHome, home (safe)</text>
</a>
</g>
</g>
<!-- personCollection&#45;&gt;personCollection -->
<g id="edge4" class="edge">
<title>personCollection&#45;&gt;personCollection</title>
<path fill="none" stroke="black" d="M139.67,-327.24C150.29,-325.52 157.57,-321.61 157.57,-315.5 157.57,-311.59 154.58,-308.57 149.64,-306.46"/>
<polygon fill="black" stroke="black" points="150.23,-303 139.67,-303.76 148.4,-309.75 150.23,-303"/>
<g id="a_edge4_0"><a xlink:href="docs/safe.goPersonCollection.html" xlink:title="&lt;TABLE&gt;">
<text text-anchor="start" x="162.07" y="-322.1" font-family="Times,serif" font-size="13.00">goPersonCollection (safe)</text>
</a>
</g>
<g id="a_edge4_1"><a xlink:href="docs/safe.goPersonFilter.html" xlink:title="&lt;TABLE&gt;">
<text text-anchor="start" x="162.07" y="-302.1" font-family="Times,serif" font-size="13.00">goPersonFilter (safe)</text>
</a>
</g>
</g>
<!-- personItem -->
<g id="node3" class="node">
<title>personItem</title>
<g id="a_node3"><a xlink:href="docs/semantic.personItem.html" xlink:title="&lt;TABLE&gt;" target="_parent">
<polygon fill="lightgray" stroke="black" stroke-width="2" points="428.57,-194 319.57,-194 319.57,-107 428.57,-107 428.57,-194"/>
<text text-anchor="start" x="333.57" y="-176.3" font-family="Times,serif" font-size="14.00">personItem</text>
<text text-anchor="start" x="336.57" y="-161.3" font-family="Times,serif" font-size="14.00">(identifier)</text>
<text text-anchor="start" x="328.57" y="-146.3" font-family="Times,serif" font-size="14.00">(givenName)</text>
<text text-anchor="start" x="326.07" y="-131.3" font-family="Times,serif" font-size="14.00">(familyName)</text>
<text text-anchor="start" x="347.07" y="-116.3" font-family="Times,serif" font-size="14.00">(status)</text>
</a>
</g>
</g>
<!-- personCollection&#45;&gt;personItem -->
<g id="edge5" class="edge">
<title>personCollection&#45;&gt;personItem</title>
<path fill="none" stroke="black" d="M44.27,-271.93C34.31,-251.56 28.99,-228.16 44.07,-212 63.9,-190.75 277.39,-202.88 305.07,-194 306.73,-193.47 308.39,-192.89 310.04,-192.27"/>
<polygon fill="black" stroke="black" points="311.61,-195.4 319.46,-188.29 308.89,-188.95 311.61,-195.4"/>
<g id="a_edge5_2"><a xlink:href="docs/safe.goPersonItem.html" xlink:title="&lt;TABLE&gt;">
<text text-anchor="start" x="48.07" y="-239.6" font-family="Times,serif" font-size="13.00">goPersonItem (safe)</text>
</a>
</g>
<g id="a_edge5_3"><a xlink:href="docs/unsafe.doPersonCreate.html" xlink:title="&lt;TABLE&gt;">
<text text-anchor="start" x="48.07" y="-219.6" font-family="Times,serif" font-size="13.00">doPersonCreate (unsafe)</text>
</a>
</g>
</g>
<!-- personItem&#45;&gt;home -->
<g id="edge6" class="edge">
<title>personItem&#45;&gt;home</title>
<g id="a_edge6"><a xlink:href="docs/safe.goHome.html" xlink:title="goHome, home (safe)" target="_parent">
<path fill="none" stroke="black" d="M428.6,-157.48C463.36,-164.44 505.91,-179.48 528.07,-212 550.47,-244.87 547.75,-356.43 528.07,-391 522.64,-400.53 513.78,-407.92 504.36,-413.54"/>
<polygon fill="black" stroke="black" points="502.42,-410.6 495.24,-418.4 505.71,-416.78 502.42,-410.6"/>
</a>
</g>
<g id="a_edge6&#45;label"><a xlink:href="docs/safe.goHome.html" xlink:title="goHome, home (safe)" target="_parent">
<text text-anchor="middle" x="613.07" y="-312.1" font-family="Times,serif" font-size="13.00">goHome, home (safe)</text>
</a>
</g>
</g>
<!-- personItem&#45;&gt;personCollection -->
<g id="edge7" class="edge">
<title>personItem&#45;&gt;personCollection</title>
<g id="a_edge7"><a xlink:href="docs/safe.goPersonCollection.html" xlink:title="goPersonCollection, person collection (safe)" target="_parent">
<path fill="none" stroke="black" d="M319.48,-187.09C314.7,-189.6 309.85,-191.95 305.07,-194 276.34,-206.33 261.69,-192.73 237.07,-212 220.31,-225.12 229.82,-239.69 214.07,-254 195.62,-270.77 171.81,-283.36 149.03,-292.59"/>
<polygon fill="black" stroke="black" points="147.74,-289.34 139.68,-296.22 150.27,-295.86 147.74,-289.34"/>
</a>
</g>
<g id="a_edge7&#45;label"><a xlink:href="docs/safe.goPersonCollection.html" xlink:title="goPersonCollection, person collection (safe)" target="_parent">
<text text-anchor="middle" x="382.57" y="-229.6" font-family="Times,serif" font-size="13.00">goPersonCollection, person collection (safe)</text>
</a>
</g>
</g>
<!-- personItem&#45;&gt;personItem -->
<g id="edge8" class="edge">
<title>personItem&#45;&gt;personItem</title>
<path fill="none" stroke="black" d="M428.77,-162.64C439.19,-161.19 446.57,-157.14 446.57,-150.5 446.57,-146.25 443.54,-143.06 438.63,-140.93"/>
<polygon fill="black" stroke="black" points="439.33,-137.5 428.77,-138.36 437.56,-144.27 439.33,-137.5"/>
<g id="a_edge8_4"><a xlink:href="docs/safe.goPersonItem.html" xlink:title="&lt;TABLE&gt;">
<text text-anchor="start" x="450.57" y="-157.1" font-family="Times,serif" font-size="13.00">goPersonItem (safe)</text>
</a>
</g>
<g id="a_edge8_5"><a xlink:href="docs/idempotent.doPersonUpdate.html" xlink:title="&lt;TABLE&gt;">
<text text-anchor="start" x="450.57" y="-137.1" font-family="Times,serif" font-size="13.00">doPersonUpdate (idempotent)</text>
</a>
</g>
</g>
<!-- personStatus -->
<g id="node4" class="node">
<title>personStatus</title>
<g id="a_node4"><a xlink:href="docs/semantic.personStatus.html" xlink:title="&lt;TABLE&gt;" target="_parent">
<polygon fill="lightgray" stroke="black" stroke-width="2" points="330.07,-57 222.07,-57 222.07,0 330.07,0 330.07,-57"/>
<text text-anchor="start" x="228.07" y="-39.3" font-family="Times,serif" font-size="14.00">personStatus</text>
<text text-anchor="start" x="238.07" y="-24.3" font-family="Times,serif" font-size="14.00">(identifier)</text>
<text text-anchor="start" x="248.57" y="-9.3" font-family="Times,serif" font-size="14.00">(status)</text>
</a>
</g>
</g>
<!-- personItem&#45;&gt;personStatus -->
<g id="edge9" class="edge">
<title>personItem&#45;&gt;personStatus</title>
<g id="a_edge9"><a xlink:href="docs/safe.goPersonStatus.html" xlink:title="goPersonStatus, person status item (safe)" target="_parent">
<path fill="none" stroke="black" d="M319.41,-112.89C314.68,-110.63 309.87,-108.63 305.07,-107 267.62,-94.31 154.57,-118.34 128.07,-89 99.29,-57.15 159.63,-42.05 211.71,-35.1"/>
<polygon fill="black" stroke="black" points="212.16,-38.57 221.65,-33.86 211.29,-31.63 212.16,-38.57"/>
</a>
</g>
<g id="a_edge9&#45;label"><a xlink:href="docs/safe.goPersonStatus.html" xlink:title="goPersonStatus, person status item (safe)" target="_parent">
<text text-anchor="middle" x="265.57" y="-78.6" font-family="Times,serif" font-size="13.00">goPersonStatus, person status item (safe)</text>
</a>
</g>
</g>
<!-- personStatus&#45;&gt;home -->
<g id="edge10" class="edge">
<title>personStatus&#45;&gt;home</title>
<g id="a_edge10"><a xlink:href="docs/safe.goHome.html" xlink:title="goHome, home (safe)" target="_parent">
<path fill="none" stroke="black" d="M330.09,-32.19C415.79,-37.15 578.49,-49.66 630.07,-75 648.12,-83.87 653,-89.05 662.07,-107 678.01,-138.55 715.78,-319.9 687.07,-359 645.39,-415.76 557.74,-427.74 505.6,-429.56"/>
<polygon fill="black" stroke="black" points="505.27,-426.07 495.36,-429.8 505.44,-433.06 505.27,-426.07"/>
</a>
</g>
<g id="a_edge10&#45;label"><a xlink:href="docs/safe.goHome.html" xlink:title="goHome, home (safe)" target="_parent">
<text text-anchor="middle" x="764.07" y="-229.6" font-family="Times,serif" font-size="13.00">goHome, home (safe)</text>
</a>
</g>
</g>
<!-- personStatus&#45;&gt;personCollection -->
<g id="edge11" class="edge">
<title>personStatus&#45;&gt;personCollection</title>
<g id="a_edge11"><a xlink:href="docs/safe.goPersonCollection.html" xlink:title="goPersonCollection, person collection (safe)" target="_parent">
<path fill="none" stroke="black" d="M221.99,-38.09C154.16,-50.11 43.86,-74.2 20.07,-107 -18.4,-160.03 5.91,-193.51 31.07,-254 32.32,-257.01 33.74,-260.02 35.28,-263"/>
<polygon fill="black" stroke="black" points="32.28,-264.81 40.22,-271.83 38.39,-261.39 32.28,-264.81"/>
</a>
</g>
<g id="a_edge11&#45;label"><a xlink:href="docs/safe.goPersonCollection.html" xlink:title="goPersonCollection, person collection (safe)" target="_parent">
<text text-anchor="middle" x="165.57" y="-147.1" font-family="Times,serif" font-size="13.00">goPersonCollection, person collection (safe)</text>
</a>
</g>
</g>
<!-- personStatus&#45;&gt;personItem -->
<g id="edge12" class="edge">
<title>personStatus&#45;&gt;personItem</title>
<g id="a_edge12"><a xlink:href="docs/safe.goPersonItem.html" xlink:title="goPersonItem, person item (safe)" target="_parent">
<path fill="none" stroke="black" d="M330.19,-34.58C356.76,-40.11 386.55,-51.54 403.07,-75 407.79,-81.7 408.79,-89.28 407.53,-96.97"/>
<polygon fill="black" stroke="black" points="404.13,-96.14 404.84,-106.71 410.87,-98 404.13,-96.14"/>
</a>
</g>
<g id="a_edge12&#45;label"><a xlink:href="docs/safe.goPersonItem.html" xlink:title="goPersonItem, person item (safe)" target="_parent">
<text text-anchor="middle" x="516.57" y="-78.6" font-family="Times,serif" font-size="13.00">goPersonItem, person item (safe)</text>
</a>
</g>
</g>
<!-- personStatus&#45;&gt;personStatus -->
<g id="edge13" class="edge">
<title>personStatus&#45;&gt;personStatus</title>
<path fill="none" stroke="black" d="M330.08,-37.82C340.6,-36.73 348.07,-33.63 348.07,-28.5 348.07,-25.21 345,-22.76 340.03,-21.13"/>
<polygon fill="black" stroke="black" points="340.56,-17.67 330.08,-19.18 339.22,-24.54 340.56,-17.67"/>
<g id="a_edge13_6"><a xlink:href="docs/safe.goPersonStatus.html" xlink:title="&lt;TABLE&gt;">
<text text-anchor="start" x="352.07" y="-35.1" font-family="Times,serif" font-size="13.00">goPersonStatus (safe)</text>
</a>
</g>
<g id="a_edge13_7"><a xlink:href="docs/idempotent.doPersonStatusUpdate.html" xlink:title="&lt;TABLE&gt;">
<text text-anchor="start" x="352.07" y="-15.1" font-family="Times,serif" font-size="13.00">doPersonStatusUpdate (idempotent)</text>
</a>
</g>
</g>
</g>
</svg>
