<?xml version="1.0" encoding="UTF-8" standalone="no"?>
<!DOCTYPE svg PUBLIC "-//W3C//DTD SVG 1.1//EN"
 "http://www.w3.org/Graphics/SVG/1.1/DTD/svg11.dtd">
<!-- Generated by graphviz version 2.43.0 (0)
 -->
<!-- Title: application_state_diagram Pages: 1 -->
<svg width="1669pt" height="601pt"
 viewBox="0.00 0.00 1669.00 601.00" xmlns="http://www.w3.org/2000/svg" xmlns:xlink="http://www.w3.org/1999/xlink">
<g id="graph0" class="graph" transform="scale(1 1) rotate(0) translate(4 597)">
<title>application_state_diagram</title>
<g id="a_graph0"><a xlink:href="index.html" xlink:title="ALPS Person Profile" target="_parent">
<polygon fill="white" stroke="transparent" points="-4,4 -4,-597 1665,-597 1665,4 -4,4"/>
<text text-anchor="middle" x="830.5" y="-577.8" font-family="Helvetica,sans-Serif" font-size="14.00">ALPS Person Profile</text>
</a>
</g>
<!-- home -->
<g id="node1" class="node">
<title>home</title>
<g id="a_node1"><a xlink:href="docs/semantic.home.html" xlink:title="&lt;TABLE&gt;" target="_parent">
<polygon fill="lightgray" stroke="black" stroke-width="2" points="815,-570 753,-570 753,-528 815,-528 815,-570"/>
<text text-anchor="start" x="764" y="-552.8" font-family="Times,serif" font-size="14.00">home</text>
<text text-anchor="start" x="759" y="-537.8" font-family="Times,serif" font-size="14.00">(home)</text>
</a>
</g>
</g>
<!-- home&#45;&gt;home -->
<g id="edge1" class="edge">
<title>home&#45;&gt;home</title>
<g id="a_edge1"><a xlink:href="docs/safe.goHome.html" xlink:title="goHome, home (safe)" target="_parent">
<path fill="none" stroke="black" d="M815.1,-557.62C825.09,-557.53 833,-554.66 833,-549 833,-545.46 829.91,-543.01 825.15,-541.65"/>
<polygon fill="black" stroke="black" points="825.46,-538.16 815.1,-540.38 824.58,-545.11 825.46,-538.16"/>
</a>
</g>
<g id="a_edge1&#45;label"><a xlink:href="docs/safe.goHome.html" xlink:title="goHome, home (safe)" target="_parent">
<text text-anchor="middle" x="903" y="-545.6" font-family="Times,serif" font-size="13.00">goHome, home (safe)</text>
</a>
</g>
</g>
<!-- personCollection -->
<g id="node2" class="node">
<title>personCollection</title>
<g id="a_node2"><a xlink:href="docs/semantic.personCollection.html" xlink:title="&lt;TABLE&gt;" target="_parent">
<polygon fill="lightgray" stroke="black" stroke-width="2" points="758.5,-478 625.5,-478 625.5,-391 758.5,-391 758.5,-478"/>
<text text-anchor="start" x="632" y="-460.3" font-family="Times,serif" font-size="14.00">personCollection</text>
<text text-anchor="start" x="654.5" y="-445.3" font-family="Times,serif" font-size="14.00">(identifier)</text>
<text text-anchor="start" x="646.5" y="-430.3" font-family="Times,serif" font-size="14.00">(givenName)</text>
<text text-anchor="start" x="644" y="-415.3" font-family="Times,serif" font-size="14.00">(familyName)</text>
<text text-anchor="start" x="665" y="-400.3" font-family="Times,serif" font-size="14.00">(status)</text>
</a>
</g>
</g>
<!-- home&#45;&gt;personCollection -->
<g id="edge2" class="edge">
<title>home&#45;&gt;personCollection</title>
<g id="a_edge2"><a xlink:href="docs/safe.goPersonCollection.html" xlink:title="goPersonCollection, person collection (safe)" target="_parent">
<path fill="none" stroke="black" d="M752.96,-544.92C711.98,-540.14 643.24,-529.4 628,-510 622.09,-502.48 621.84,-494.69 625.06,-487.09"/>
<polygon fill="black" stroke="black" points="628.18,-488.68 630.29,-478.3 622.17,-485.1 628.18,-488.68"/>
</a>
</g>
<g id="a_edge2&#45;label"><a xlink:href="docs/safe.goPersonCollection.html" xlink:title="goPersonCollection, person collection (safe)" target="_parent">
<text text-anchor="middle" x="773.5" y="-499.6" font-family="Times,serif" font-size="13.00">goPersonCollection, person collection (safe)</text>
</a>
</g>
</g>
<!-- relatedActions -->
<g id="node5" class="node">
<title>relatedActions</title>
<g id="a_node5"><a xlink:href="docs/semantic.relatedActions.html" xlink:title="relatedActions" target="_parent">
<polygon fill="lightgray" stroke="black" stroke-width="2" points="1166,-313 1046,-313 1046,-277 1166,-277 1166,-313"/>
<text text-anchor="middle" x="1106" y="-291.3" font-family="Times,serif" font-size="14.00">relatedActions</text>
</a>
</g>
</g>
<!-- home&#45;&gt;relatedActions -->
<g id="edge3" class="edge">
<title>home&#45;&gt;relatedActions</title>
<g id="a_edge3"><a xlink:href="docs/safe.goRelated.html" xlink:title="goRelated, person related (safe)" target="_parent">
<path fill="none" stroke="black" d="M815.06,-547.44C880.27,-545.71 1028.73,-538.65 1069,-510 1124.55,-470.48 1122.24,-439.33 1138,-373 1142.32,-354.84 1144.76,-348.4 1138,-331 1136.64,-327.49 1134.74,-324.12 1132.55,-320.95"/>
<polygon fill="black" stroke="black" points="1135.2,-318.67 1126.2,-313.07 1129.75,-323.06 1135.2,-318.67"/>
</a>
</g>
<g id="a_edge3&#45;label"><a xlink:href="docs/safe.goRelated.html" xlink:title="goRelated, person related (safe)" target="_parent">
<text text-anchor="middle" x="1239" y="-431.1" font-family="Times,serif" font-size="13.00">goRelated, person related (safe)</text>
</a>
</g>
</g>
<!-- personCollection&#45;&gt;home -->
<g id="edge4" class="edge">
<title>personCollection&#45;&gt;home</title>
<g id="a_edge4"><a xlink:href="docs/safe.goHome.html" xlink:title="goHome, home (safe)" target="_parent">
<path fill="none" stroke="black" d="M758.55,-444.21C818.28,-453.56 899.46,-470.57 919,-496 945.57,-530.58 873.98,-542.18 825.17,-546.06"/>
<polygon fill="black" stroke="black" points="824.87,-542.57 815.15,-546.77 825.37,-549.55 824.87,-542.57"/>
</a>
</g>
<g id="a_edge4&#45;label"><a xlink:href="docs/safe.goHome.html" xlink:title="goHome, home (safe)" target="_parent">
<text text-anchor="middle" x="995" y="-499.6" font-family="Times,serif" font-size="13.00">goHome, home (safe)</text>
</a>
</g>
</g>
<!-- personCollection&#45;&gt;personCollection -->
<g id="edge5" class="edge">
<title>personCollection&#45;&gt;personCollection</title>
<path fill="none" stroke="black" d="M758.6,-446.24C769.22,-444.52 776.5,-440.61 776.5,-434.5 776.5,-430.59 773.51,-427.57 768.57,-425.46"/>
<polygon fill="black" stroke="black" points="769.16,-422 758.6,-422.76 767.33,-428.75 769.16,-422"/>
<g id="a_edge5_0"><a xlink:href="docs/safe.goPersonCollection.html" xlink:title="&lt;TABLE&gt;">
<text text-anchor="start" x="781" y="-441.1" font-family="Times,serif" font-size="13.00">goPersonCollection (safe)</text>
</a>
</g>
<g id="a_edge5_1"><a xlink:href="docs/safe.goPersonFilter.html" xlink:title="&lt;TABLE&gt;">
<text text-anchor="start" x="781" y="-421.1" font-family="Times,serif" font-size="13.00">goPersonFilter (safe)</text>
</a>
</g>
</g>
<!-- personItem -->
<g id="node3" class="node">
<title>personItem</title>
<g id="a_node3"><a xlink:href="docs/semantic.personItem.html" xlink:title="&lt;TABLE&gt;" target="_parent">
<polygon fill="lightgray" stroke="black" stroke-width="2" points="569.5,-87 460.5,-87 460.5,0 569.5,0 569.5,-87"/>
<text text-anchor="start" x="474.5" y="-69.3" font-family="Times,serif" font-size="14.00">personItem</text>
<text text-anchor="start" x="477.5" y="-54.3" font-family="Times,serif" font-size="14.00">(identifier)</text>
<text text-anchor="start" x="469.5" y="-39.3" font-family="Times,serif" font-size="14.00">(givenName)</text>
<text text-anchor="start" x="467" y="-24.3" font-family="Times,serif" font-size="14.00">(familyName)</text>
<text text-anchor="start" x="488" y="-9.3" font-family="Times,serif" font-size="14.00">(status)</text>
</a>
</g>
</g>
<!-- personCollection&#45;&gt;personItem -->
<g id="edge6" class="edge">
<title>personCollection&#45;&gt;personItem</title>
<path fill="none" stroke="black" d="M625.26,-416.69C597.78,-407.27 567.05,-393.23 544,-373 500.16,-334.53 493.94,-315.38 479,-259 464.56,-204.54 479.19,-140.69 493.9,-96.9"/>
<polygon fill="black" stroke="black" points="497.25,-97.92 497.23,-87.32 490.64,-95.62 497.25,-97.92"/>
<g id="a_edge6_2"><a xlink:href="docs/unsafe.doPersonCreate.html" xlink:title="&lt;TABLE&gt;">
<text text-anchor="start" x="483" y="-244.6" font-family="Times,serif" font-size="13.00">doPersonCreate (unsafe)</text>
</a>
</g>
<g id="a_edge6_3"><a xlink:href="docs/safe.goPersonItem.html" xlink:title="&lt;TABLE&gt;">
<text text-anchor="start" x="483" y="-224.6" font-family="Times,serif" font-size="13.00">goPersonItem (safe)</text>
</a>
</g>
</g>
<!-- personCollection&#45;&gt;relatedActions -->
<g id="edge7" class="edge">
<title>personCollection&#45;&gt;relatedActions</title>
<g id="a_edge7"><a xlink:href="docs/safe.goRelated.html" xlink:title="goRelated, person related (safe)" target="_parent">
<path fill="none" stroke="black" d="M701.11,-390.82C707.29,-366.21 716.11,-338.67 726,-331 748.97,-313.18 958.09,-316.06 987,-313 1002.75,-311.33 1019.61,-309.16 1035.55,-306.93"/>
<polygon fill="black" stroke="black" points="1036.47,-310.34 1045.87,-305.46 1035.48,-303.41 1036.47,-310.34"/>
</a>
</g>
<g id="a_edge7&#45;label"><a xlink:href="docs/safe.goRelated.html" xlink:title="goRelated, person related (safe)" target="_parent">
<text text-anchor="middle" x="832" y="-348.6" font-family="Times,serif" font-size="13.00">goRelated, person related (safe)</text>
</a>
</g>
</g>
<!-- personItem&#45;&gt;home -->
<g id="edge8" class="edge">
<title>personItem&#45;&gt;home</title>
<g id="a_edge8"><a xlink:href="docs/safe.goHome.html" xlink:title="goHome, home (safe)" target="_parent">
<path fill="none" stroke="black" d="M460.37,-45.99C327.83,-51.07 0,-73.14 0,-167 0,-435.5 0,-435.5 0,-435.5 0,-511.27 581.17,-539.96 742.76,-546.47"/>
<polygon fill="black" stroke="black" points="742.65,-549.97 752.78,-546.87 742.93,-542.98 742.65,-549.97"/>
</a>
</g>
<g id="a_edge8&#45;label"><a xlink:href="docs/safe.goHome.html" xlink:title="goHome, home (safe)" target="_parent">
<text text-anchor="middle" x="70" y="-291.6" font-family="Times,serif" font-size="13.00">goHome, home (safe)</text>
</a>
</g>
</g>
<!-- personItem&#45;&gt;personCollection -->
<g id="edge9" class="edge">
<title>personItem&#45;&gt;personCollection</title>
<g id="a_edge9"><a xlink:href="docs/safe.goPersonCollection.html" xlink:title="goPersonCollection, person collection (safe)" target="_parent">
<path fill="none" stroke="black" d="M460.18,-55.04C345.99,-79.49 99.56,-146.71 179,-259 278.42,-399.52 497.8,-428.31 614.86,-433.31"/>
<polygon fill="black" stroke="black" points="615.05,-436.82 625.17,-433.69 615.31,-429.82 615.05,-436.82"/>
</a>
</g>
<g id="a_edge9&#45;label"><a xlink:href="docs/safe.goPersonCollection.html" xlink:title="goPersonCollection, person collection (safe)" target="_parent">
<text text-anchor="middle" x="324.5" y="-234.6" font-family="Times,serif" font-size="13.00">goPersonCollection, person collection (safe)</text>
</a>
</g>
</g>
<!-- personItem&#45;&gt;personItem -->
<g id="edge10" class="edge">
<title>personItem&#45;&gt;personItem</title>
<path fill="none" stroke="black" d="M569.7,-55.64C580.12,-54.19 587.5,-50.14 587.5,-43.5 587.5,-39.25 584.47,-36.06 579.56,-33.93"/>
<polygon fill="black" stroke="black" points="580.26,-30.5 569.7,-31.36 578.49,-37.27 580.26,-30.5"/>
<g id="a_edge10_4"><a xlink:href="docs/idempotent.doPersonUpdate.html" xlink:title="&lt;TABLE&gt;">
<text text-anchor="start" x="591.5" y="-50.1" font-family="Times,serif" font-size="13.00">doPersonUpdate (idempotent)</text>
</a>
</g>
<g id="a_edge10_5"><a xlink:href="docs/safe.goPersonItem.html" xlink:title="&lt;TABLE&gt;">
<text text-anchor="start" x="591.5" y="-30.1" font-family="Times,serif" font-size="13.00">goPersonItem (safe)</text>
</a>
</g>
</g>
<!-- personStatus -->
<g id="node4" class="node">
<title>personStatus</title>
<g id="a_node4"><a xlink:href="docs/semantic.personStatus.html" xlink:title="&lt;TABLE&gt;" target="_parent">
<polygon fill="lightgray" stroke="black" stroke-width="2" points="762,-196.5 654,-196.5 654,-139.5 762,-139.5 762,-196.5"/>
<text text-anchor="start" x="660" y="-178.8" font-family="Times,serif" font-size="14.00">personStatus</text>
<text text-anchor="start" x="670" y="-163.8" font-family="Times,serif" font-size="14.00">(identifier)</text>
<text text-anchor="start" x="680.5" y="-148.8" font-family="Times,serif" font-size="14.00">(status)</text>
</a>
</g>
</g>
<!-- personItem&#45;&gt;personStatus -->
<g id="edge11" class="edge">
<title>personItem&#45;&gt;personStatus</title>
<g id="a_edge11"><a xlink:href="docs/safe.goPersonStatus.html" xlink:title="goPersonStatus, person status item (safe)" target="_parent">
<path fill="none" stroke="black" d="M506.6,-87.11C506.61,-98.48 508.93,-110.08 516,-119 531.91,-139.1 594.51,-152.08 643.96,-159.4"/>
<polygon fill="black" stroke="black" points="643.58,-162.89 653.97,-160.84 644.57,-155.96 643.58,-162.89"/>
</a>
</g>
<g id="a_edge11&#45;label"><a xlink:href="docs/safe.goPersonStatus.html" xlink:title="goPersonStatus, person status item (safe)" target="_parent">
<text text-anchor="middle" x="653.5" y="-108.6" font-family="Times,serif" font-size="13.00">goPersonStatus, person status item (safe)</text>
</a>
</g>
</g>
<!-- personItem&#45;&gt;relatedActions -->
<g id="edge12" class="edge">
<title>personItem&#45;&gt;relatedActions</title>
<g id="a_edge12"><a xlink:href="docs/safe.goRelated.html" xlink:title="goRelated, person related (safe)" target="_parent">
<path fill="none" stroke="black" d="M569.81,-45.71C759.11,-50.46 1376.85,-70.94 1433,-137 1510.28,-227.92 1294.03,-270.26 1176.42,-286.12"/>
<polygon fill="black" stroke="black" points="1175.86,-282.67 1166.4,-287.44 1176.77,-289.61 1175.86,-282.67"/>
</a>
</g>
<g id="a_edge12&#45;label"><a xlink:href="docs/safe.goRelated.html" xlink:title="goRelated, person related (safe)" target="_parent">
<text text-anchor="middle" x="1555" y="-164.6" font-family="Times,serif" font-size="13.00">goRelated, person related (safe)</text>
</a>
</g>
</g>
<!-- personStatus&#45;&gt;home -->
<g id="edge13" class="edge">
<title>personStatus&#45;&gt;home</title>
<g id="a_edge13"><a xlink:href="docs/safe.goHome.html" xlink:title="goHome, home (safe)" target="_parent">
<path fill="none" stroke="black" d="M694.91,-196.54C685.07,-215.44 670.35,-240.38 653,-259 615.42,-299.34 577.25,-281.99 552,-331 543.45,-347.59 547.74,-354.83 552,-373 567.52,-439.18 566.67,-467.85 620,-510 655.06,-537.71 706.75,-545.88 742.69,-547.96"/>
<polygon fill="black" stroke="black" points="742.7,-551.46 752.84,-548.41 743.01,-544.47 742.7,-551.46"/>
</a>
</g>
<g id="a_edge13&#45;label"><a xlink:href="docs/safe.goHome.html" xlink:title="goHome, home (safe)" target="_parent">
<text text-anchor="middle" x="622" y="-348.6" font-family="Times,serif" font-size="13.00">goHome, home (safe)</text>
</a>
</g>
</g>
<!-- personStatus&#45;&gt;personCollection -->
<g id="edge14" class="edge">
<title>personStatus&#45;&gt;personCollection</title>
<g id="a_edge14"><a xlink:href="docs/safe.goPersonCollection.html" xlink:title="goPersonCollection, person collection (safe)" target="_parent">
<path fill="none" stroke="black" d="M706.32,-196.72C703.69,-240.22 698.55,-325.28 695.19,-380.72"/>
<polygon fill="black" stroke="black" points="691.7,-380.52 694.59,-390.71 698.69,-380.94 691.7,-380.52"/>
</a>
</g>
<g id="a_edge14&#45;label"><a xlink:href="docs/safe.goPersonCollection.html" xlink:title="goPersonCollection, person collection (safe)" target="_parent">
<text text-anchor="middle" x="847.5" y="-291.6" font-family="Times,serif" font-size="13.00">goPersonCollection, person collection (safe)</text>
</a>
</g>
</g>
<!-- personStatus&#45;&gt;personItem -->
<g id="edge15" class="edge">
<title>personStatus&#45;&gt;personItem</title>
<g id="a_edge15"><a xlink:href="docs/safe.goPersonItem.html" xlink:title="goPersonItem, person item (safe)" target="_parent">
<path fill="none" stroke="black" d="M762.03,-148.67C785.63,-137.71 805.09,-122.52 791,-105 764.97,-72.65 652.68,-56.63 579.59,-49.49"/>
<polygon fill="black" stroke="black" points="579.83,-45.99 569.55,-48.54 579.17,-52.96 579.83,-45.99"/>
</a>
</g>
<g id="a_edge15&#45;label"><a xlink:href="docs/safe.goPersonItem.html" xlink:title="goPersonItem, person item (safe)" target="_parent">
<text text-anchor="middle" x="905.5" y="-108.6" font-family="Times,serif" font-size="13.00">goPersonItem, person item (safe)</text>
</a>
</g>
</g>
<!-- personStatus&#45;&gt;personStatus -->
<g id="edge16" class="edge">
<title>personStatus&#45;&gt;personStatus</title>
<path fill="none" stroke="black" d="M762.01,-178.03C772.53,-176.87 780,-173.52 780,-168 780,-164.46 776.93,-161.82 771.96,-160.07"/>
<polygon fill="black" stroke="black" points="772.51,-156.61 762.01,-157.97 771.07,-163.46 772.51,-156.61"/>
<g id="a_edge16_6"><a xlink:href="docs/idempotent.doPersonStatusUpdate.html" xlink:title="&lt;TABLE&gt;">
<text text-anchor="start" x="784" y="-174.6" font-family="Times,serif" font-size="13.00">doPersonStatusUpdate (idempotent)</text>
</a>
</g>
<g id="a_edge16_7"><a xlink:href="docs/safe.goPersonStatus.html" xlink:title="&lt;TABLE&gt;">
<text text-anchor="start" x="784" y="-154.6" font-family="Times,serif" font-size="13.00">goPersonStatus (safe)</text>
</a>
</g>
</g>
<!-- personStatus&#45;&gt;relatedActions -->
<g id="edge17" class="edge">
<title>personStatus&#45;&gt;relatedActions</title>
<g id="a_edge17"><a xlink:href="docs/safe.goRelated.html" xlink:title="goRelated, person related (safe)" target="_parent">
<path fill="none" stroke="black" d="M762.19,-173.28C829.89,-179.54 940.87,-193.14 974,-217 991.27,-229.44 980.59,-245.45 997,-259 1008.33,-268.36 1022.21,-275.23 1036.22,-280.27"/>
<polygon fill="black" stroke="black" points="1035.31,-283.66 1045.91,-283.48 1037.51,-277.01 1035.31,-283.66"/>
</a>
</g>
<g id="a_edge17&#45;label"><a xlink:href="docs/safe.goRelated.html" xlink:title="goRelated, person related (safe)" target="_parent">
<text text-anchor="middle" x="1103" y="-234.6" font-family="Times,serif" font-size="13.00">goRelated, person related (safe)</text>
</a>
</g>
</g>
<!-- relatedActions&#45;&gt;home -->
<g id="edge18" class="edge">
<title>relatedActions&#45;&gt;home</title>
<g id="a_edge18"><a xlink:href="docs/safe.goHome.html" xlink:title="goHome, home (safe)" target="_parent">
<path fill="none" stroke="black" d="M1166.19,-300.88C1223.96,-309.14 1308.26,-331.33 1349,-391 1370.8,-422.93 1374.6,-449.02 1349,-478 1314.34,-517.22 950.2,-539.46 825.57,-545.97"/>
<polygon fill="black" stroke="black" points="825.1,-542.49 815.29,-546.5 825.46,-549.48 825.1,-542.49"/>
</a>
</g>
<g id="a_edge18&#45;label"><a xlink:href="docs/safe.goHome.html" xlink:title="goHome, home (safe)" target="_parent">
<text text-anchor="middle" x="1436" y="-431.1" font-family="Times,serif" font-size="13.00">goHome, home (safe)</text>
</a>
</g>
</g>
<!-- relatedActions&#45;&gt;personCollection -->
<g id="edge19" class="edge">
<title>relatedActions&#45;&gt;personCollection</title>
<path fill="none" stroke="black" d="M1045.82,-299.41C1017.69,-303.61 985.16,-312.5 961,-331 944.1,-343.94 954.87,-360.03 938,-373 889.54,-410.26 821.19,-424.89 768.83,-430.49"/>
<polygon fill="black" stroke="black" points="768.2,-427.03 758.58,-431.49 768.88,-434 768.2,-427.03"/>
<g id="a_edge19_8"><a xlink:href="docs/safe.goPersonCollection.html" xlink:title="&lt;TABLE&gt;">
<text text-anchor="start" x="965.5" y="-358.6" font-family="Times,serif" font-size="13.00">goPersonCollection (safe)</text>
</a>
</g>
<g id="a_edge19_9"><a xlink:href="docs/safe.goPersonFilter.html" xlink:title="&lt;TABLE&gt;">
<text text-anchor="start" x="965.5" y="-338.6" font-family="Times,serif" font-size="13.00">goPersonFilter (safe)</text>
</a>
</g>
</g>
<!-- relatedActions&#45;&gt;personItem -->
<g id="edge20" class="edge">
<title>relatedActions&#45;&gt;personItem</title>
<path fill="none" stroke="black" d="M1166.2,-286.7C1182.73,-281.62 1198.88,-273.13 1209,-259 1219.87,-243.83 1218.26,-233.21 1209,-217 1160.37,-131.89 1111.86,-136.4 1019,-105 867.41,-53.74 677.31,-44.76 579.59,-43.87"/>
<polygon fill="black" stroke="black" points="579.59,-40.37 569.57,-43.81 579.54,-47.37 579.59,-40.37"/>
<g id="a_edge20_10"><a xlink:href="docs/unsafe.doPersonCreate.html" xlink:title="&lt;TABLE&gt;">
<text text-anchor="start" x="1201" y="-184.6" font-family="Times,serif" font-size="13.00">doPersonCreate (unsafe)</text>
</a>
</g>
<g id="a_edge20_11"><a xlink:href="docs/idempotent.doPersonUpdate.html" xlink:title="&lt;TABLE&gt;">
<text text-anchor="start" x="1201" y="-164.6" font-family="Times,serif" font-size="13.00">doPersonUpdate (idempotent)</text>
</a>
</g>
<g id="a_edge20_12"><a xlink:href="docs/safe.goPersonItem.html" xlink:title="&lt;TABLE&gt;">
<text text-anchor="start" x="1201" y="-144.6" font-family="Times,serif" font-size="13.00">goPersonItem (safe)</text>
</a>
</g>
</g>
<!-- relatedActions&#45;&gt;personStatus -->
<g id="edge21" class="edge">
<title>relatedActions&#45;&gt;personStatus</title>
<path fill="none" stroke="black" d="M1045.87,-284.53C1027.06,-281.8 1006.2,-279.02 987,-277 957.65,-273.91 743.75,-278.95 722,-259 707.91,-246.07 704,-225.28 703.81,-206.93"/>
<polygon fill="black" stroke="black" points="707.31,-206.85 704.06,-196.77 700.31,-206.68 707.31,-206.85"/>
<g id="a_edge21_13"><a xlink:href="docs/idempotent.doPersonStatusUpdate.html" xlink:title="&lt;TABLE&gt;">
<text text-anchor="start" x="726" y="-244.6" font-family="Times,serif" font-size="13.00">doPersonStatusUpdate (idempotent)</text>
</a>
</g>
<g id="a_edge21_14"><a xlink:href="docs/safe.goPersonStatus.html" xlink:title="&lt;TABLE&gt;">
<text text-anchor="start" x="726" y="-224.6" font-family="Times,serif" font-size="13.00">goPersonStatus (safe)</text>
</a>
</g>
</g>
<!-- relatedActions&#45;&gt;relatedActions -->
<g id="edge22" class="edge">
<title>relatedActions&#45;&gt;relatedActions</title>
<g id="a_edge22"><a xlink:href="docs/safe.goRelated.html" xlink:title="goRelated, person related (safe)" target="_parent">
<path fill="none" stroke="black" d="M1166.18,-304.84C1176.69,-303.53 1184,-300.25 1184,-295 1184,-291.64 1181,-289.08 1176.08,-287.33"/>
<polygon fill="black" stroke="black" points="1176.69,-283.89 1166.18,-285.16 1175.19,-290.72 1176.69,-283.89"/>
</a>
</g>
<g id="a_edge22&#45;label"><a xlink:href="docs/safe.goRelated.html" xlink:title="goRelated, person related (safe)" target="_parent">
<text text-anchor="middle" x="1290" y="-291.6" font-family="Times,serif" font-size="13.00">goRelated, person related (safe)</text>
</a>
</g>
</g>
</g>
</svg>
