<?xml version="1.0" encoding="UTF-8" standalone="no"?>
<!DOCTYPE svg PUBLIC "-//W3C//DTD SVG 1.1//EN"
 "http://www.w3.org/Graphics/SVG/1.1/DTD/svg11.dtd">
<!-- Generated by graphviz version 2.43.0 (0)
 -->
<!-- Title: application_state_diagram Pages: 1 -->
<svg width="351pt" height="205pt"
 viewBox="0.00 0.00 351.00 205.00" xmlns="http://www.w3.org/2000/svg" xmlns:xlink="http://www.w3.org/1999/xlink">
<g id="graph0" class="graph" transform="scale(1 1) rotate(0) translate(4 201)">
<title>application_state_diagram</title>
<g id="a_graph0"><a xlink:href="index.html" xlink:title="ALPS ToDo Profile" target="_parent">
<polygon fill="white" stroke="transparent" points="-4,4 -4,-201 347,-201 347,4 -4,4"/>
<text text-anchor="middle" x="171.5" y="-181.8" font-family="Helvetica,sans-Serif" font-size="14.00">ALPS ToDo Profile</text>
</a>
</g>
<!-- home -->
<g id="node1" class="node">
<title>home</title>
<g id="a_node1"><a xlink:href="docs/semantic.home.html" xlink:title="&lt;TABLE&gt;" target="_parent">
<polygon fill="lightgray" stroke="black" stroke-width="2" points="89,-174 27,-174 27,-132 89,-132 89,-174"/>
<text text-anchor="start" x="38" y="-156.8" font-family="Times,serif" font-size="14.00">home</text>
<text text-anchor="start" x="33" y="-141.8" font-family="Times,serif" font-size="14.00">(home)</text>
</a>
</g>
</g>
<!-- listToDoItems -->
<g id="node2" class="node">
<title>listToDoItems</title>
<g id="a_node2"><a xlink:href="docs/safe.listToDoItems.html" xlink:title="listToDoItems" target="_parent">
<polygon fill="lightgray" stroke="black" stroke-width="2" points="116,-59 0,-59 0,-23 116,-23 116,-59"/>
<text text-anchor="middle" x="58" y="-37.3" font-family="Times,serif" font-size="14.00">listToDoItems</text>
</a>
</g>
</g>
<!-- home&#45;&gt;listToDoItems -->
<g id="edge1" class="edge">
<title>home&#45;&gt;listToDoItems</title>
<g id="a_edge1"><a xlink:href="docs/safe.listToDoItems.html" xlink:title="listToDoItems (safe)" target="_parent">
<path fill="none" stroke="black" d="M58,-131.82C58,-114.24 58,-88.59 58,-69.2"/>
<polygon fill="black" stroke="black" points="61.5,-69.16 58,-59.16 54.5,-69.16 61.5,-69.16"/>
</a>
</g>
<g id="a_edge1&#45;label"><a xlink:href="docs/safe.listToDoItems.html" xlink:title="listToDoItems (safe)" target="_parent">
<text text-anchor="middle" x="124.5" y="-103.6" font-family="Times,serif" font-size="13.00">listToDoItems (safe)</text>
</a>
</g>
</g>
<!-- listToDoItems&#45;&gt;listToDoItems -->
<g id="edge2" class="edge">
<title>listToDoItems&#45;&gt;listToDoItems</title>
<path fill="none" stroke="black" d="M116.31,-52.65C126.73,-51.14 134,-47.25 134,-41 134,-36.99 131.01,-33.96 126.13,-31.9"/>
<polygon fill="black" stroke="black" points="126.87,-28.48 116.31,-29.35 125.11,-35.25 126.87,-28.48"/>
<g id="a_edge2_0"><a xlink:href="docs/unsafe.createToDoItem.html" xlink:title="&lt;TABLE&gt;">
<text text-anchor="start" x="138.5" y="-67.6" font-family="Times,serif" font-size="13.00">createToDoItem (unsafe)</text>
</a>
</g>
<g id="a_edge2_1"><a xlink:href="docs/idempotent.updateToDoItem.html" xlink:title="&lt;TABLE&gt;">
<text text-anchor="start" x="138.5" y="-47.6" font-family="Times,serif" font-size="13.00">updateToDoItem (idempotent)</text>
</a>
</g>
<g id="a_edge2_2"><a xlink:href="docs/idempotent.removeToDoItem.html" xlink:title="&lt;TABLE&gt;">
<text text-anchor="start" x="138.5" y="-27.6" font-family="Times,serif" font-size="13.00">removeToDoItem (idempotent)</text>
</a>
</g>
<g id="a_edge2_3"><a xlink:href="docs/safe.filterToDoItems.html" xlink:title="&lt;TABLE&gt;">
<text text-anchor="start" x="138.5" y="-7.6" font-family="Times,serif" font-size="13.00">filterToDoItems (safe)</text>
</a>
</g>
</g>
</g>
</svg>
